{
  "asset": {"version": "2.0"},
  "extensionsUsed": [
    "KHR_materials_clearcoat",
    "KHR_materials_sheen",
    "KHR_materials_ior",
    "KHR_materials_transmission",
    "KHR_materials_volume",
    "KHR_materials_iridescence",
    "KHR_materials_anisotropy",
    "KHR_materials_dispersion"
  ],
  "buffers": [{
    "byteLength": 108,
    "uri": "data:application/octet-stream;base64,"
  }],
  "bufferViews": [
    {"buffer": 0, "byteOffset": 0, "byteLength": 48},
    {"buffer": 0, "byteOffset": 48, "byteLength": 48},
    {"buffer": 0, "byteOffset": 96, "byteLength": 12}
  ],
  "accessors": [
    {"bufferView": 0, "componentType": 5126, "count": 4, "type": "VEC3", "min": [-1, -1, 0], "max": [1, 1, 0]},
    {"bufferView": 1, "componentType": 5126, "count": 4, "type": "VEC3"},
    {"bufferView": 2, "componentType": 5123, "count": 6, "type": "SCALAR"}
  ],
  "materials": [
    {
      "name": "clearcoat-sheen",
      "pbrMetallicRoughness": {"baseColorFactor": [0.72, 0.08, 0.04, 1], "roughnessFactor": 0.22, "metallicFactor": 0.15},
      "extensions": {
        "KHR_materials_clearcoat": {"clearcoatFactor": 1.0, "clearcoatRoughnessFactor": 0.06},
        "KHR_materials_sheen": {"sheenColorFactor": [0.8, 0.18, 0.08], "sheenRoughnessFactor": 0.35}
      }
    },
    {
      "name": "iridescent-anisotropic",
      "pbrMetallicRoughness": {"baseColorFactor": [0.08, 0.32, 0.72, 1], "roughnessFactor": 0.3, "metallicFactor": 0.55},
      "extensions": {
        "KHR_materials_anisotropy": {"anisotropyStrength": 0.8, "anisotropyRotation": 0.55},
        "KHR_materials_iridescence": {"iridescenceFactor": 0.9, "iridescenceIor": 1.45, "iridescenceThicknessMinimum": 180.0, "iridescenceThicknessMaximum": 520.0}
      }
    },
    {
      "name": "transmission-dispersion",
      "pbrMetallicRoughness": {"baseColorFactor": [0.82, 0.92, 1.0, 1], "roughnessFactor": 0.08, "metallicFactor": 0.0},
      "extensions": {
        "KHR_materials_ior": {"ior": 1.52},
        "KHR_materials_transmission": {"transmissionFactor": 0.72},
        "KHR_materials_volume": {"thicknessFactor": 0.65, "attenuationDistance": 2.5, "attenuationColor": [0.72, 0.9, 1.0]},
        "KHR_materials_dispersion": {"dispersion": 0.35}
      }
    }
  ],
  "meshes": [
    {"primitives": [{"attributes": {"POSITION": 0, "NORMAL": 1}, "indices": 2, "material": 0}]},
    {"primitives": [{"attributes": {"POSITION": 0, "NORMAL": 1}, "indices": 2, "material": 1}]},
    {"primitives": [{"attributes": {"POSITION": 0, "NORMAL": 1}, "indices": 2, "material": 2}]}
  ],
  "nodes": [
    {"name": "coated", "mesh": 0, "translation": [-1.35, 0, -4.0], "scale": [0.72, 0.9, 1.0]},
    {"name": "film", "mesh": 1, "translation": [0, 0, -4.0], "scale": [0.72, 0.9, 1.0]},
    {"name": "transmission", "mesh": 2, "translation": [1.35, 0, -4.0], "scale": [0.72, 0.9, 1.0]}
  ],
  "scenes": [{"nodes": [0, 1, 2]}],
  "scene": 0
}
